<mxfile host="app.diagrams.net" agent="Mozilla/5.0 (Windows NT 10.0; Win64; x64) AppleWebKit/537.36 (KHTML, like Gecko) Chrome/123.0.0.0 Safari/537.36" version="26.0.4">
  <diagram name="第 1 页" id="zmYZHYOlhQ4b74bmiblJ">
    <mxGraphModel dx="1434" dy="746" grid="1" gridSize="10" guides="1" tooltips="1" connect="1" arrows="1" fold="1" page="1" pageScale="1" pageWidth="827" pageHeight="1169" math="0" shadow="0">
      <root>
        <mxCell id="0" />
        <mxCell id="1" parent="0" />
        <mxCell id="Oa8JdPcQqp8JRHTGJRSs-5" style="edgeStyle=orthogonalEdgeStyle;rounded=0;orthogonalLoop=1;jettySize=auto;html=1;exitX=1;exitY=0.5;exitDx=0;exitDy=0;entryX=0;entryY=0.5;entryDx=0;entryDy=0;" parent="1" source="Oa8JdPcQqp8JRHTGJRSs-1" target="Oa8JdPcQqp8JRHTGJRSs-2" edge="1">
          <mxGeometry relative="1" as="geometry" />
        </mxCell>
        <mxCell id="Oa8JdPcQqp8JRHTGJRSs-6" style="edgeStyle=orthogonalEdgeStyle;rounded=0;orthogonalLoop=1;jettySize=auto;html=1;exitX=1;exitY=0.5;exitDx=0;exitDy=0;entryX=0;entryY=0.5;entryDx=0;entryDy=0;" parent="1" source="Oa8JdPcQqp8JRHTGJRSs-1" target="Oa8JdPcQqp8JRHTGJRSs-4" edge="1">
          <mxGeometry relative="1" as="geometry" />
        </mxCell>
        <mxCell id="Oa8JdPcQqp8JRHTGJRSs-7" style="edgeStyle=orthogonalEdgeStyle;rounded=0;orthogonalLoop=1;jettySize=auto;html=1;exitX=1;exitY=0.5;exitDx=0;exitDy=0;entryX=0;entryY=0.5;entryDx=0;entryDy=0;" parent="1" source="Oa8JdPcQqp8JRHTGJRSs-1" target="Oa8JdPcQqp8JRHTGJRSs-3" edge="1">
          <mxGeometry relative="1" as="geometry" />
        </mxCell>
        <mxCell id="1j5Dewsz3F2BlS7yMnSd-2" style="edgeStyle=orthogonalEdgeStyle;rounded=0;orthogonalLoop=1;jettySize=auto;html=1;exitX=1;exitY=0.5;exitDx=0;exitDy=0;entryX=0;entryY=0.5;entryDx=0;entryDy=0;" edge="1" parent="1" source="Oa8JdPcQqp8JRHTGJRSs-1" target="1j5Dewsz3F2BlS7yMnSd-1">
          <mxGeometry relative="1" as="geometry" />
        </mxCell>
        <mxCell id="Oa8JdPcQqp8JRHTGJRSs-1" value="&lt;font style=&quot;font-size: 18px;&quot;&gt;clife-senior-mall&lt;/font&gt;" style="rounded=1;whiteSpace=wrap;html=1;fillColor=#e1d5e7;strokeColor=#9673a6;" parent="1" vertex="1">
          <mxGeometry x="70" y="330" width="210" height="70" as="geometry" />
        </mxCell>
        <mxCell id="Oa8JdPcQqp8JRHTGJRSs-2" value="&lt;font style=&quot;font-size: 18px;&quot;&gt;clife-senior-mall-app&lt;/font&gt;" style="rounded=1;whiteSpace=wrap;html=1;fillColor=#fff2cc;strokeColor=#d6b656;" parent="1" vertex="1">
          <mxGeometry x="360" y="140" width="240" height="80" as="geometry" />
        </mxCell>
        <mxCell id="Oa8JdPcQqp8JRHTGJRSs-3" value="&lt;font style=&quot;font-size: 18px;&quot;&gt;clife-senior-integral-api&lt;/font&gt;" style="rounded=1;whiteSpace=wrap;html=1;fillColor=#dae8fc;strokeColor=#6c8ebf;" parent="1" vertex="1">
          <mxGeometry x="360" y="270" width="240" height="70" as="geometry" />
        </mxCell>
        <mxCell id="Oa8JdPcQqp8JRHTGJRSs-4" value="&lt;font style=&quot;font-size: 18px;&quot;&gt;clife-senior-integral-domain&lt;/font&gt;" style="rounded=1;whiteSpace=wrap;html=1;fillColor=#d5e8d4;strokeColor=#82b366;" parent="1" vertex="1">
          <mxGeometry x="360" y="390" width="240" height="70" as="geometry" />
        </mxCell>
        <mxCell id="1j5Dewsz3F2BlS7yMnSd-1" value="&lt;font style=&quot;font-size: 18px;&quot;&gt;clife-senior-integral-biz-domain(优化新增)&lt;/font&gt;" style="rounded=1;whiteSpace=wrap;html=1;fillColor=#d80073;strokeColor=#A50040;fontColor=#ffffff;" vertex="1" parent="1">
          <mxGeometry x="360" y="515" width="240" height="70" as="geometry" />
        </mxCell>
        <mxCell id="1j5Dewsz3F2BlS7yMnSd-3" value="&lt;font style=&quot;font-size: 16px;&quot;&gt;控制层相关接口&lt;/font&gt;" style="text;html=1;align=center;verticalAlign=middle;whiteSpace=wrap;rounded=0;" vertex="1" parent="1">
          <mxGeometry x="640" y="168.75" width="120" height="22.5" as="geometry" />
        </mxCell>
        <mxCell id="1j5Dewsz3F2BlS7yMnSd-4" value="&lt;font style=&quot;font-size: 16px;&quot;&gt;积分对外接口&lt;/font&gt;" style="text;html=1;align=center;verticalAlign=middle;whiteSpace=wrap;rounded=0;" vertex="1" parent="1">
          <mxGeometry x="642.5" y="291.25" width="110" height="27.5" as="geometry" />
        </mxCell>
        <mxCell id="1j5Dewsz3F2BlS7yMnSd-6" value="&lt;span style=&quot;font-size: 16px;&quot;&gt;领域聚合模块&lt;/span&gt;" style="text;html=1;align=center;verticalAlign=middle;whiteSpace=wrap;rounded=0;" vertex="1" parent="1">
          <mxGeometry x="640" y="540" width="120" height="30" as="geometry" />
        </mxCell>
        <mxCell id="1j5Dewsz3F2BlS7yMnSd-8" value="&lt;font style=&quot;font-size: 16px;&quot;&gt;积分领域&lt;/font&gt;" style="text;html=1;align=center;verticalAlign=middle;whiteSpace=wrap;rounded=0;" vertex="1" parent="1">
          <mxGeometry x="642.5" y="411.25" width="110" height="27.5" as="geometry" />
        </mxCell>
      </root>
    </mxGraphModel>
  </diagram>
</mxfile>
